<?xml version="1.0" encoding="UTF-8" standalone="no"?>
<!DOCTYPE svg PUBLIC "-//W3C//DTD SVG 1.1//EN"
 "http://www.w3.org/Graphics/SVG/1.1/DTD/svg11.dtd">
<!-- Generated by graphviz version 2.40.1 (20161225.0304)
 -->
<!-- Title: G Pages: 1 -->
<svg width="146pt" height="188pt"
 viewBox="0.00 0.00 145.71 188.00" xmlns="http://www.w3.org/2000/svg" xmlns:xlink="http://www.w3.org/1999/xlink">
<g id="graph0" class="graph" transform="scale(1 1) rotate(0) translate(4 184)">
<title>G</title>
<polygon fill="#ffffff" stroke="transparent" points="-4,4 -4,-184 141.7077,-184 141.7077,4 -4,4"/>
<!-- vote&#45;bot -->
<g id="node1" class="node">
<title>vote&#45;bot</title>
<ellipse fill="none" stroke="#000000" cx="66" cy="-162" rx="39.6558" ry="18"/>
<text text-anchor="middle" x="66" y="-157.8" font-family="Times,serif" font-size="14.00" fill="#000000">vote&#45;bot</text>
</g>
<!-- web -->
<g id="node2" class="node">
<title>web</title>
<ellipse fill="none" stroke="#000000" cx="66" cy="-90" rx="27" ry="18"/>
<text text-anchor="middle" x="66" y="-85.8" font-family="Times,serif" font-size="14.00" fill="#000000">web</text>
</g>
<!-- vote&#45;bot&#45;&gt;web -->
<g id="edge1" class="edge">
<title>vote&#45;bot&#45;&gt;web</title>
<path fill="none" stroke="#000000" d="M66,-143.8314C66,-136.131 66,-126.9743 66,-118.4166"/>
<polygon fill="#000000" stroke="#000000" points="69.5001,-118.4132 66,-108.4133 62.5001,-118.4133 69.5001,-118.4132"/>
</g>
<!-- gif -->
<g id="node3" class="node">
<title>gif</title>
<ellipse fill="none" stroke="#000000" cx="27" cy="-18" rx="27" ry="18"/>
<text text-anchor="middle" x="27" y="-13.8" font-family="Times,serif" font-size="14.00" fill="#000000">gif</text>
</g>
<!-- web&#45;&gt;gif -->
<g id="edge2" class="edge">
<title>web&#45;&gt;gif</title>
<path fill="none" stroke="#000000" d="M56.7575,-72.937C52.0463,-64.2393 46.2183,-53.4799 40.9722,-43.7948"/>
<polygon fill="#000000" stroke="#000000" points="44.0165,-42.0664 36.1761,-34.9405 37.8615,-45.4005 44.0165,-42.0664"/>
</g>
<!-- voting -->
<g id="node4" class="node">
<title>voting</title>
<ellipse fill="none" stroke="#000000" cx="105" cy="-18" rx="32.9168" ry="18"/>
<text text-anchor="middle" x="105" y="-13.8" font-family="Times,serif" font-size="14.00" fill="#000000">voting</text>
</g>
<!-- web&#45;&gt;voting -->
<g id="edge3" class="edge">
<title>web&#45;&gt;voting</title>
<path fill="none" stroke="#000000" d="M75.2425,-72.937C79.8376,-64.4537 85.495,-54.0092 90.6388,-44.513"/>
<polygon fill="#000000" stroke="#000000" points="93.8676,-45.9006 95.553,-35.4407 87.7126,-42.5666 93.8676,-45.9006"/>
</g>
</g>
</svg>
